<svg width="677pt" height="271pt" viewBox="0 0 677 271" version="1.1" xmlns="http://www.w3.org/2000/svg"><path id="Petti" fill="#FFF" d="M90.167 19.632a22.192 22.192 0 0 1 4.284-4.17c1.581-1.162 2.472-1.953 2.655-2.462s-.022-.732-.615-.688a1.456 1.456 0 0 0-.7-.059 24.1 24.1 0 0 0-4.11 1.544 25 25 0 0 0-7.652 5.69 71.562 71.562 0 0 0-23.754 4.666 76.131 76.131 0 0 0-23.509 14.4 73.785 73.785 0 0 0-18.109 25.216A84.359 84.359 0 0 0 11.431 102a66.938 66.938 0 0 0 3.34 19.4c2.119 6.183 4.611 9.224 7.715 9.173 3.119-.029 6.239-3.127 9.786-8.823a67.619 67.619 0 0 0 7.633-18.125c1.925-7.047 2.1-13.275.183-19.139a1.4 1.4 0 0 0-.758-1.035c-.292-.067-.517.13-.673.588a3.279 3.279 0 0 0-.012 1.731 62.618 62.618 0 0 1-1.756 18.16c-1.472 6.4-3.4 11.537-5.771 15.325s-4.688 5.4-7.149 4.594c-2.3-.783-4.034-3.007-5.291-6.68-2.029-5.975-2.969-13.96-2.36-23.434a77.567 77.567 0 0 1 4.025-21.168A85.46 85.46 0 0 1 28.577 55.1a71.426 71.426 0 0 1 12.535-14.809 63.388 63.388 0 0 1 18.672-11.657 79.876 79.876 0 0 1 21.389-5.459 62.316 62.316 0 0 0-3.384 5.672c-.724 1.147-1.308 2.1-1.759 2.847a98.544 98.544 0 0 0-8.5 24.435 220.464 220.464 0 0 0-4.3 27.046c-1.849 21.8-3.761 39.83-6.332 52.523-3.642 17.71-7.874 32.539-12.653 43.549-3.18 7.4-5.536 9.6-7.906 5.939a9.271 9.271 0 0 1-1.307-2.616 34.927 34.927 0 0 1-1.332-11.431 30.436 30.436 0 0 1 2.191-11.882 21.017 21.017 0 0 1 4.1-6.466c1.315-1.246 2.04-2.219 2.112-2.952.031-1.1-.488-1.177-1.522-.217a31.293 31.293 0 0 0-6.707 10.122c-2.664 6.24-3.639 13.372-3.329 21.2a42.011 42.011 0 0 0 1.494 10.9 16.165 16.165 0 0 0 2.3 4.781c3.291 3.9 6.476-1.553 12.061-14.42a274.352 274.352 0 0 0 15.579-47.147c2.806-12.435 5.549-25.3 8.148-38.488q2.137-1.431 4.288-2.9c6.689-4.574 14.23-10.125 22.817-15.862 4.937-3.351 9.848-7.071 14.734-11.021a89.313 89.313 0 0 0 12.187-11.5c5.606-6.444 7.741-11.356 6.09-16.212-2.075-6.051-9.184-11.72-21.245-15.835a70.119 70.119 0 0 0-18.834-3.6zm-19.3 73.11c1.436-7.519 3.492-20.239 6.952-36.312C81.3 40.4 85.02 29.685 88.355 22.8c18.113.324 29.045 6.537 31.792 14.587 2.51 7.365-1.486 14.293-11.053 24.31A175.373 175.373 0 0 1 91.372 77.3c-6.805 5.373-13.048 10.3-18.842 14.28q-.835.574-1.659 1.16zm62.561-12.491a39.5 39.5 0 0 0 7.748-4.391c5.592-4.429 7.79-8.093 6.413-12.148-.389-1.138-1.573-2.2-3.553-3.164a14.955 14.955 0 0 0-6.119-1.164 16.038 16.038 0 0 0-6.049 1.4 21.458 21.458 0 0 0-9.887 8.447 32.772 32.772 0 0 0-4.675 12.3 23.857 23.857 0 0 0 .685 11.588A9.842 9.842 0 0 0 124.5 99.7a17.6 17.6 0 0 0 10.3-.005c6.91-1.866 11.967-5.363 15.161-10.643a34.443 34.443 0 0 0 3.776-8.4c1.046-3.306 1.539-5.008 1.447-5.28a.855.855 0 0 0-.748-.5 1.659 1.659 0 0 0-1.975 1.408c-3.206 11.545-8.91 18.725-17.325 20.866a7.292 7.292 0 0 1-5.519-.455 7.486 7.486 0 0 1-3.384-4.364 18.056 18.056 0 0 1-.89-8.822 49.963 49.963 0 0 0 8.086-3.257zm5.71-6.016a31.452 31.452 0 0 1-6.911 4.478 33.649 33.649 0 0 1-6.537 2.711 39.648 39.648 0 0 1 5.058-11.66c3.781-5.611 7.118-8.1 9.837-8.169a2.829 2.829 0 0 1 3.031 2c1.206 3.546-.328 6.86-4.478 10.638zm18.73 18.744a14.979 14.979 0 0 0 8.008 1.993 15.942 15.942 0 0 0 13.47-7.291 50.968 50.968 0 0 0 4.3-7.645 1.42 1.42 0 0 0-.025-1.22 1.105 1.105 0 0 0-1-.451 1.017 1.017 0 0 0-1.011.7c-3.113 5.821-6.5 10.071-10.251 12.141a13.683 13.683 0 0 1-5 1.012 5.2 5.2 0 0 1-3.563-1.261 6.156 6.156 0 0 1-1.859-2.509 8 8 0 0 1-.434-2.533q-.081-5.062-.128-9.981c5.9-4.33 10.56-8.427 13.934-12.824q4.217 1.056 8.394 2.4c.479.154.783.108.911-.141a.924.924 0 0 0-.193-.938 2.083 2.083 0 0 0-1.1-.806q-3.462-1.143-6.954-2.087c1.253-2 2.494-4.087 3.725-6.246a7.246 7.246 0 0 0 .805-6.217 10.545 10.545 0 0 0-4.769-5.395 16.684 16.684 0 0 0-2.5-1.089 10.553 10.553 0 0 0-4.984-.186c-2.188.334-4.261 1.75-6.187 4.4a46.8 46.8 0 0 0-5.573 10.984q-4.413-.515-8.827-.736a.8.8 0 0 0-.914.5 1.17 1.17 0 0 0 .231 1.1 1.4 1.4 0 0 0 1.142.589q3.815.16 7.633.539c-3.475 12.031-4.021 22-2.115 27.542a10.356 10.356 0 0 0 4.837 5.656zm6.97-33.842c2.591-6.622 4.726-10.137 6.268-11.414 1.546-1.259 2.863-1.631 3.943-1.24a3.209 3.209 0 0 1 1.645 2.18c.945 2.805-.611 6.352-4.54 12.045q-3.648-.891-7.316-1.572zm-4.234 13.74c1.724-6.544 2.923-10.308 3.484-11.905q3.441.579 6.869 1.343a67.38 67.38 0 0 1-10.353 10.562zm25.567 21.494a20.7 20.7 0 0 0 7.832 3.5c5.639 1.275 10 .309 13.205-2.629a28.465 28.465 0 0 0 4.228-5 1.019 1.019 0 0 0-.006-.992 1.592 1.592 0 0 0-.947-.658.748.748 0 0 0-.974.271c-3.056 3.814-6.393 6.42-10.083 7.2a15.56 15.56 0 0 1-4.893-.376 7.7 7.7 0 0 1-5.23-4.415 6.473 6.473 0 0 1-.368-2.216q.039-4.244.105-8.343c5.883-2.174 10.45-4.275 13.755-6.865q4.019 2.068 7.952 4.439c.451.272.738.331.862.172a.755.755 0 0 0-.169-.809 3.1 3.1 0 0 0-1.033-.99q-3.258-1.994-6.579-3.779a107.832 107.832 0 0 0 3.639-3.887 4.355 4.355 0 0 0 .846-4.689 14.281 14.281 0 0 0-4.435-5.826 24.665 24.665 0 0 0-2.359-1.656 13.514 13.514 0 0 0-4.759-1.659 7.061 7.061 0 0 0-6.047 1.814 25.767 25.767 0 0 0-5.665 7.58q-4.311-1.527-8.672-2.743a.689.689 0 0 0-.918.206.968.968 0 0 0 .2.973 1.906 1.906 0 0 0 1.116.758q3.771 1.022 7.508 2.275c-3.692 9.134-4.513 17.449-2.761 22.518a12.258 12.258 0 0 0 4.653 5.826zm7.579-26.385c2.64-4.729 4.745-6.933 6.241-7.5a4.1 4.1 0 0 1 3.778.212 4.163 4.163 0 0 1 1.529 2.258c.851 2.546-.659 4.842-4.525 8.333q-3.48-1.765-7.02-3.303zm-4.41 10.245c1.833-5 3.071-7.775 3.648-8.94q3.327 1.383 6.61 2.962a48.516 48.516 0 0 1-10.258 5.978zm34.375 5.554a6.5 6.5 0 0 0-1.736-3.016 23.659 23.659 0 0 0-3.931-3.742 10.88 10.88 0 0 0-3.809-2.052c-1.038-.237-1.537.034-1.5.764a6.888 6.888 0 0 0 1.869 3.039 23.535 23.535 0 0 0 3.916 3.43 14.455 14.455 0 0 0 3.745 2.072c1 .316 1.48.167 1.442-.5zm-9.183 17.153a4.553 4.553 0 0 1 .485-4.1 78.815 78.815 0 0 1 5.425-8.729c.549-.342.574-.843.074-1.537a16.517 16.517 0 0 0-3.792-3.116q-3.64-2.385-7.369-4.49a12.427 12.427 0 0 1 2.352 3.071 2.15 2.15 0 0 1 .176 1.149q-2.043 4.157-4.044 9.129a5.735 5.735 0 0 0-.058 4.252 13.843 13.843 0 0 0 3.572 5.029 28.38 28.38 0 0 0 7.587 4.971 15.964 15.964 0 0 0 8.723 1.815 7.817 7.817 0 0 0 2.941-.955 9.541 9.541 0 0 0 1.933-1.2c.3-.3.623-.63.983-.983a.924.924 0 0 0 .423-.856 2.19 2.19 0 0 0-.414-.693c-.682-.776-1.186-1.021-1.507-.721-2.768 2.036-5.405 3.511-7.91 3.633a10.844 10.844 0 0 1-4.673-1.29c-2.708-1.367-4.36-2.769-4.907-4.384z"/><path id="code" fill="#FFF" d="M163.458 240.347a44.887 44.887 0 0 1-24.45-6.9 46.878 46.878 0 0 1-17.1-19.2 60.828 60.828 0 0 1-6.15-27.6q0-15.3 6-27a45.842 45.842 0 0 1 16.05-18.15 39.513 39.513 0 0 1 21.75-6.45q13.5 0 22.65 4.65t17.85 16.05l.3-.3 13.5-13.2a57.842 57.842 0 0 0-21.9-18.75 66.146 66.146 0 0 0-30-6.75 67.238 67.238 0 0 0-35.1 9.3 65.858 65.858 0 0 0-24.45 25.5q-8.853 16.2-8.85 36.6t8.85 36.75a65.536 65.536 0 0 0 24.45 25.65q15.6 9.3 35.4 9.3 29.4 0 49.5-21.6l-12.6-14.7q-15 16.8-35.7 16.8zm33.3-84.3l1.5 1.5 1.2-1.2q-2.7-2.1-2.7-.3zm3.3-.3l-.6.6a8.149 8.149 0 0 1 1.35.9q.746.6-.75-1.5zm101.7 103.2a60.417 60.417 0 0 0 32.7-9 61.271 61.271 0 0 0 22.5-25.2q8.1-16.2 8.1-36.9t-8.1-36.9a62.343 62.343 0 0 0-22.5-25.35 63.006 63.006 0 0 0-65.4 0 62.343 62.343 0 0 0-22.5 25.35q-8.1 16.2-8.1 36.9t8.1 36.9a61.271 61.271 0 0 0 22.5 25.2 60.4 60.4 0 0 0 32.7 9zm0-18a33.7 33.7 0 0 1-20.85-6.9q-9.154-6.9-14.4-19.05a68.529 68.529 0 0 1-5.25-27.45q0-23.4 11.4-38.25t29.1-14.85q17.7 0 29.1 14.85t11.4 38.25a68.615 68.615 0 0 1-5.25 27.45q-5.253 12.15-14.4 19.05a33.709 33.709 0 0 1-20.85 6.9zm145.2 18.6a43.082 43.082 0 0 0 23.25-6.45 50.171 50.171 0 0 0 16.95-17.85q0 7.2.45 11.85a30.892 30.892 0 0 0 2.55 9.45h21.3a30.892 30.892 0 0 1-2.55-9.45q-.45-4.649-.45-11.85l-.3-165a39.278 39.278 0 0 1 .45-7.2 7.845 7.845 0 0 1 2.25-3.9v-2.1h-22.8v82.5a40.844 40.844 0 0 0-15.75-17.4q-10.35-6.3-24.15-6.3a54.783 54.783 0 0 0-27.9 7.65q-13.2 7.65-21.6 23.55t-8.4 39.6q0 23.4 8.1 39.9t21 24.75a50.328 50.328 0 0 0 27.6 8.25zm3.3-18.9q-18.9 0-28.95-15.45t-10.05-41.85q0-23.1 9.6-36.45t27.6-13.35q18.9 0 28.35 14.7t9.45 39q0 24-8.7 38.7t-27.3 14.7zm158.1 18.9q30.6 0 48-21l-12-11.7q-13.8 15.3-35.4 15.3-19.8 0-32.7-12.9t-14.1-38.1h97.5q.6-6.6.6-9.9 0-32.1-15.45-48.6t-40.35-16.5a60.88 60.88 0 0 0-31.95 8.55q-14.253 8.55-22.65 24.9t-8.4 38.85q0 33.9 18.15 52.5t48.75 18.6zm-45.3-85.2q2.7-20.7 13.8-31.2a36.736 36.736 0 0 1 26.1-10.5q15.9 0 25.65 11.25t9.75 30.45h-75.3z"/></svg>